<svg id="Layer_1" data-name="Layer 1" xmlns="http://www.w3.org/2000/svg" viewBox="0 0 1931.4 2000"><path d="M1930.35,1769.26c-.27,106.53-39,146.81-146.34,153.24-426.66,25.57-853.4,49.69-1279.94,77.06-85,5.45-147.16-18.87-197.74-89.82-74.45-104.44-155.42-204.3-234.95-305C22.7,1543-.5,1476.08,0,1395.86c2.4-382.16,1-764.35,1.1-1146.52,0-125.66,33-158.4,159.76-167.49,351-25.16,702.07-49.15,1052.65-79.14,121.63-10.4,227,7.19,325.68,86.17,107,85.71,223.23,160.07,336.51,237.8,40,27.43,56.12,61.16,55.68,110.26ZM491.45,526.76c-78.13,4.43-90.56,16.41-90.59,95.86q-.17,561.89,0,1123.75c0,84.29,24.93,106.8,109.62,101.83q594.7-34.85,1189.44-69.22c77.8-4.49,98.16-24.43,98.21-103q.42-568.67,0-1137.34c-.05-70-17.27-86.77-85.57-82.92ZM225.1,190.19c-27.08,2.06-33.38,34.46-16.53,51.31,22.9,22.91,96.18,86,96.18,86,60.61,49.94,121.88,69.37,199.12,64.2l1106.3-68c32.45-3.46,29.27-30.35,12.32-42.05l-.5-.36c-50.08-36.41-100.56-73.48-150.27-109.13-65.67-47.07-132.06-66.19-211.4-59.79C1260.32,112.36,483.77,170.55,225.1,190.19Z"/><path d="M1420.93,966.7A10.76,10.76,0,0,0,1430.4,980l34.32,3.18c78,7.19,136.18,72.72,135.31,152.43-1,88-70,165.85-157.46,172.92-19.33,1.56-77.43,4.57-77.43,4.57l-.06-152c.1-9.23-8-16.34-18.1-15.75l-170.33,10.06c-10.09.61-18.54,8.7-18.65,17.93l.06,152,0,13.27v25.23l.05,58.46V1441l0,59.67-56.47,3.34c-10.46.62-19.13,9-19.24,18.52,0,4.52,2.7,8.25,5.66,12S1245.6,1734,1246.08,1734a18,18,0,0,0,13,4.13,21.23,21.23,0,0,0,14.37-7s159-213.45,161.57-217.28,5.51-7.72,5.56-12.47c.11-9.52-8.28-16.9-18.73-16.28l-56.62,3.34,0-59.71V1410c41.19-2.43,79-4.66,79.52-4.68,17.68-1,38-6.71,40.24-7.33,58.3-14.65,111.55-49.17,150-97.22,38.85-48.59,60.62-108.78,61.28-169.49,1.22-110.23-68.42-205.29-170.87-235.64a9.85,9.85,0,0,1-6.9-7.78,169.42,169.42,0,0,0-52.6-96.35c-31-28.18-71.61-43.69-114.46-43.69-3.57,0-7.19.11-10.77.32a185.28,185.28,0,0,0-44.22,8.09,9.84,9.84,0,0,1-11.21-4.2A283.62,283.62,0,0,0,1188.54,659a291.74,291.74,0,0,0-146.93-39.4c-5.9,0-11.9.17-17.8.51-66.27,3.92-130,28.92-184.2,72.29-50.46,40.34-89.23,95-110,154.75a10,10,0,0,1-6.19,6.18c-60.85,21.07-115.57,61-154.86,113.12-42.2,56-64.89,121.89-65.66,190.54-.8,72.92,24.27,141.77,70.61,193.88,45.88,51.59,109.88,84,180.23,91.25,6.75.69,15.39,1,26.44,1,16.9,0,39.27-.79,70.36-2.51l.54,0c16.83-.94,34.54-2,50.13-3l135.28-8c.85,0,1.69-.14,2.52-.26.26,0,.52-.08.78-.13.57-.09,1.13-.19,1.69-.31l.88-.21c.48-.11,1.25-.33,1.72-.47l.68-.21c.56-.18,1.1-.38,1.64-.6l.66-.24c.74-.31,1.48-.65,2.19-1l.35-.19c.6-.31,1.18-.63,1.76-1l.69-.44c.28-.18.57-.35.85-.54l.38-.28a30.69,30.69,0,0,0,2.48-1.9,21.84,21.84,0,0,0,1-2.79c.07-.22.15-.44.2-.67s.1-.45.15-.67.05-.25.08-.38c.13-.65.23-1.32.31-2l0-.39c.07-.7.11-1.41.11-2.13v0l0-55.33v-15.55h0v-10.47l-.1-187.9,56.47-3.34c10.45-.62,19.13-9,19.23-18.53,0-4.51-2.69-8.25-5.66-12S970.06,910.13,969.58,910.17a17.9,17.9,0,0,0-13-4.13,21.24,21.24,0,0,0-14.37,7s-159,213.45-161.57,217.29-5.5,7.72-5.56,12.47c-.1,9.52,8.28,16.89,18.73,16.27l56.62-3.34.1,187.82-.55,0-55.33,3.12c-1.87,0-3.73.08-5.58.08-52.17,0-100.29-19.62-135.52-55.24-35.69-36.08-55-85.38-54.43-138.83,1.13-102.17,74.82-192.51,175.21-214.81L800,932.12a9.85,9.85,0,0,0,7.49-7.48l5.8-25.93c22.28-99.54,110.93-176.07,210.79-182,4.06-.24,8.2-.37,12.25-.37,83.32,0,155.79,49.69,184.64,126.59l16.19,43.17a9.87,9.87,0,0,0,15.59,4.09c3.37-2.83,6.89-5.38,8.69-7,26.76-24.42,64.19-52.08,112.47-30.38C1424.48,875.53,1428.15,936.93,1420.93,966.7Z"/></svg>